<?xml version="1.0" encoding="UTF-8" standalone="no"?>
<!DOCTYPE svg PUBLIC "-//W3C//DTD SVG 1.1//EN"
 "http://www.w3.org/Graphics/SVG/1.1/DTD/svg11.dtd">
<!-- Generated by graphviz version 2.43.0 (0)
 -->
<!-- Title: lineage Pages: 1 -->
<svg width="883pt" height="1944pt"
 viewBox="0.00 0.00 882.64 1944.40" xmlns="http://www.w3.org/2000/svg" xmlns:xlink="http://www.w3.org/1999/xlink">
<g id="graph0" class="graph" transform="scale(1 1) rotate(0) translate(43.2 1901.2)">
<title>lineage</title>
<polygon fill="#1e1e2e" stroke="transparent" points="-43.2,43.2 -43.2,-1901.2 839.44,-1901.2 839.44,43.2 -43.2,43.2"/>
<!-- ecom_raw_customers -->
<g id="node1" class="node">
<title>ecom_raw_customers</title>
<g id="a_node1"><a xlink:title="◆ ecom.raw_customers&#10;Type : Raw source table&#10;Kind : dataset&#10;&#10;Evidence &#160;&#160;: yaml_parse&#10;Confidence : 1.00&#10;File &#160;&#160;&#160;&#160;&#160;&#160;: /home/yosef/Desktop/intensive/jaffle&#45;shop/models/staging/__sources.yml">
<ellipse fill="#4caf50" stroke="#1565c0" stroke-width="2" cx="80.58" cy="-1404" rx="80.66" ry="18"/>
<text text-anchor="middle" x="80.58" y="-1401.2" font-family="Helvetica,sans-Serif" font-size="11.00" fill="#ffffff">ecom.raw_customers</text>
</a>
</g>
</g>
<!-- dbt_model__stg_customers -->
<g id="node31" class="node">
<title>dbt_model__stg_customers</title>
<g id="a_node31"><a xlink:title="◆ dbt_model:stg_customers&#10;Type : dbt transformation model&#10;Kind : transformation&#10;&#10;Evidence &#160;&#160;: sqlglot&#10;Confidence : 1.00&#10;File &#160;&#160;&#160;&#160;&#160;&#160;: models/staging/stg_customers.sql:1&#45;24">
<path fill="#f44336" stroke="#1565c0" stroke-width="2" d="M695.74,-1360C695.74,-1360 561.74,-1360 561.74,-1360 555.74,-1360 549.74,-1354 549.74,-1348 549.74,-1348 549.74,-1336 549.74,-1336 549.74,-1330 555.74,-1324 561.74,-1324 561.74,-1324 695.74,-1324 695.74,-1324 701.74,-1324 707.74,-1330 707.74,-1336 707.74,-1336 707.74,-1348 707.74,-1348 707.74,-1354 701.74,-1360 695.74,-1360"/>
<text text-anchor="middle" x="628.74" y="-1339.2" font-family="Helvetica,sans-Serif" font-size="11.00" fill="#ffffff">dbt_model:stg_customers</text>
</a>
</g>
</g>
<!-- ecom_raw_customers&#45;&gt;dbt_model__stg_customers -->
<g id="edge1" class="edge">
<title>ecom_raw_customers&#45;&gt;dbt_model__stg_customers</title>
<g id="a_edge1"><a xlink:title="consumes&#10;file=">
<path fill="none" stroke="#4caf50" d="M151.83,-1395.5C284.99,-1395.5 558.24,-1395.5 558.24,-1395.5 558.24,-1395.5 558.24,-1367.11 558.24,-1367.11"/>
<polygon fill="#4caf50" stroke="#4caf50" points="560.69,-1367.11 558.24,-1360.11 555.79,-1367.11 560.69,-1367.11"/>
</a>
</g>
<text text-anchor="middle" x="266.7" y="-1406.8" font-family="Helvetica,sans-Serif" font-size="9.00" fill="#b0bec5">consumes</text>
</g>
<!-- ecom_raw_orders -->
<g id="node2" class="node">
<title>ecom_raw_orders</title>
<g id="a_node2"><a xlink:title="◆ ecom.raw_orders&#10;Type : Raw source table&#10;Kind : dataset&#10;&#10;Evidence &#160;&#160;: yaml_parse&#10;Confidence : 1.00&#10;File &#160;&#160;&#160;&#160;&#160;&#160;: /home/yosef/Desktop/intensive/jaffle&#45;shop/models/staging/__sources.yml">
<ellipse fill="#4caf50" stroke="#1565c0" stroke-width="2" cx="80.58" cy="-412" rx="67" ry="18"/>
<text text-anchor="middle" x="80.58" y="-409.2" font-family="Helvetica,sans-Serif" font-size="11.00" fill="#ffffff">ecom.raw_orders</text>
</a>
</g>
</g>
<!-- dbt_model__stg_orders -->
<g id="node27" class="node">
<title>dbt_model__stg_orders</title>
<g id="a_node27"><a xlink:title="◆ dbt_model:stg_orders&#10;Type : dbt transformation model&#10;Kind : transformation&#10;&#10;Evidence &#160;&#160;: sqlglot&#10;Confidence : 1.00&#10;File &#160;&#160;&#160;&#160;&#160;&#160;: models/staging/stg_orders.sql:1&#45;34">
<path fill="#f44336" stroke="#1565c0" stroke-width="2" d="M684.24,-430C684.24,-430 573.24,-430 573.24,-430 567.24,-430 561.24,-424 561.24,-418 561.24,-418 561.24,-406 561.24,-406 561.24,-400 567.24,-394 573.24,-394 573.24,-394 684.24,-394 684.24,-394 690.24,-394 696.24,-400 696.24,-406 696.24,-406 696.24,-418 696.24,-418 696.24,-424 690.24,-430 684.24,-430"/>
<text text-anchor="middle" x="628.74" y="-409.2" font-family="Helvetica,sans-Serif" font-size="11.00" fill="#ffffff">dbt_model:stg_orders</text>
</a>
</g>
</g>
<!-- ecom_raw_orders&#45;&gt;dbt_model__stg_orders -->
<g id="edge2" class="edge">
<title>ecom_raw_orders&#45;&gt;dbt_model__stg_orders</title>
<g id="a_edge2"><a xlink:title="consumes&#10;file=">
<path fill="none" stroke="#4caf50" d="M143.73,-406C143.73,-406 554.11,-406 554.11,-406"/>
<polygon fill="#4caf50" stroke="#4caf50" points="554.11,-408.45 561.11,-406 554.11,-403.55 554.11,-408.45"/>
</a>
</g>
<text text-anchor="middle" x="266.7" y="-414.8" font-family="Helvetica,sans-Serif" font-size="9.00" fill="#b0bec5">consumes</text>
</g>
<!-- ecom_raw_items -->
<g id="node3" class="node">
<title>ecom_raw_items</title>
<g id="a_node3"><a xlink:title="◆ ecom.raw_items&#10;Type : Raw source table&#10;Kind : dataset&#10;&#10;Evidence &#160;&#160;: yaml_parse&#10;Confidence : 1.00&#10;File &#160;&#160;&#160;&#160;&#160;&#160;: /home/yosef/Desktop/intensive/jaffle&#45;shop/models/staging/__sources.yml">
<ellipse fill="#4caf50" stroke="#1565c0" stroke-width="2" cx="80.58" cy="-732" rx="64.19" ry="18"/>
<text text-anchor="middle" x="80.58" y="-729.2" font-family="Helvetica,sans-Serif" font-size="11.00" fill="#ffffff">ecom.raw_items</text>
</a>
</g>
</g>
<!-- dbt_model__stg_order_items -->
<g id="node30" class="node">
<title>dbt_model__stg_order_items</title>
<g id="a_node30"><a xlink:title="◆ dbt_model:stg_order_items&#10;Type : dbt transformation model&#10;Kind : transformation&#10;&#10;Evidence &#160;&#160;: sqlglot&#10;Confidence : 1.00&#10;File &#160;&#160;&#160;&#160;&#160;&#160;: models/staging/stg_order_items.sql:1&#45;23">
<path fill="#f44336" stroke="#1565c0" stroke-width="2" d="M699.24,-620C699.24,-620 558.24,-620 558.24,-620 552.24,-620 546.24,-614 546.24,-608 546.24,-608 546.24,-596 546.24,-596 546.24,-590 552.24,-584 558.24,-584 558.24,-584 699.24,-584 699.24,-584 705.24,-584 711.24,-590 711.24,-596 711.24,-596 711.24,-608 711.24,-608 711.24,-614 705.24,-620 699.24,-620"/>
<text text-anchor="middle" x="628.74" y="-599.2" font-family="Helvetica,sans-Serif" font-size="11.00" fill="#ffffff">dbt_model:stg_order_items</text>
</a>
</g>
</g>
<!-- ecom_raw_items&#45;&gt;dbt_model__stg_order_items -->
<g id="edge3" class="edge">
<title>ecom_raw_items&#45;&gt;dbt_model__stg_order_items</title>
<g id="a_edge3"><a xlink:title="consumes&#10;file=">
<path fill="none" stroke="#4caf50" d="M137.47,-723.5C262.92,-723.5 552.24,-723.5 552.24,-723.5 552.24,-723.5 552.24,-627.19 552.24,-627.19"/>
<polygon fill="#4caf50" stroke="#4caf50" points="554.69,-627.19 552.24,-620.19 549.79,-627.19 554.69,-627.19"/>
</a>
</g>
<text text-anchor="middle" x="266.7" y="-734.8" font-family="Helvetica,sans-Serif" font-size="9.00" fill="#b0bec5">consumes</text>
</g>
<!-- ecom_raw_stores -->
<g id="node4" class="node">
<title>ecom_raw_stores</title>
<g id="a_node4"><a xlink:title="◆ ecom.raw_stores&#10;Type : Raw source table&#10;Kind : dataset&#10;&#10;Evidence &#160;&#160;: yaml_parse&#10;Confidence : 1.00&#10;File &#160;&#160;&#160;&#160;&#160;&#160;: /home/yosef/Desktop/intensive/jaffle&#45;shop/models/staging/__sources.yml">
<ellipse fill="#4caf50" stroke="#1565c0" stroke-width="2" cx="80.58" cy="-1642" rx="66.29" ry="18"/>
<text text-anchor="middle" x="80.58" y="-1639.2" font-family="Helvetica,sans-Serif" font-size="11.00" fill="#ffffff">ecom.raw_stores</text>
</a>
</g>
</g>
<!-- dbt_model__stg_locations -->
<g id="node32" class="node">
<title>dbt_model__stg_locations</title>
<g id="a_node32"><a xlink:title="◆ dbt_model:stg_locations&#10;Type : dbt transformation model&#10;Kind : transformation&#10;&#10;Evidence &#160;&#160;: sqlglot&#10;Confidence : 1.00&#10;File &#160;&#160;&#160;&#160;&#160;&#160;: models/staging/stg_locations.sql:1&#45;30">
<path fill="#f44336" stroke="#1565c0" stroke-width="2" d="M691.24,-1627C691.24,-1627 566.24,-1627 566.24,-1627 560.24,-1627 554.24,-1621 554.24,-1615 554.24,-1615 554.24,-1603 554.24,-1603 554.24,-1597 560.24,-1591 566.24,-1591 566.24,-1591 691.24,-1591 691.24,-1591 697.24,-1591 703.24,-1597 703.24,-1603 703.24,-1603 703.24,-1615 703.24,-1615 703.24,-1621 697.24,-1627 691.24,-1627"/>
<text text-anchor="middle" x="628.74" y="-1606.2" font-family="Helvetica,sans-Serif" font-size="11.00" fill="#ffffff">dbt_model:stg_locations</text>
</a>
</g>
</g>
<!-- ecom_raw_stores&#45;&gt;dbt_model__stg_locations -->
<g id="edge4" class="edge">
<title>ecom_raw_stores&#45;&gt;dbt_model__stg_locations</title>
<g id="a_edge4"><a xlink:title="consumes&#10;file=">
<path fill="none" stroke="#4caf50" d="M81.24,-1623.94C81.24,-1615.59 81.24,-1607.5 81.24,-1607.5 81.24,-1607.5 547.04,-1607.5 547.04,-1607.5"/>
<polygon fill="#4caf50" stroke="#4caf50" points="547.04,-1609.95 554.04,-1607.5 547.04,-1605.05 547.04,-1609.95"/>
</a>
</g>
<text text-anchor="middle" x="266.7" y="-1644.8" font-family="Helvetica,sans-Serif" font-size="9.00" fill="#b0bec5">consumes</text>
</g>
<!-- ecom_raw_products -->
<g id="node5" class="node">
<title>ecom_raw_products</title>
<g id="a_node5"><a xlink:title="◆ ecom.raw_products&#10;Type : Raw source table&#10;Kind : dataset&#10;&#10;Evidence &#160;&#160;: yaml_parse&#10;Confidence : 1.00&#10;File &#160;&#160;&#160;&#160;&#160;&#160;: /home/yosef/Desktop/intensive/jaffle&#45;shop/models/staging/__sources.yml">
<ellipse fill="#4caf50" stroke="#1565c0" stroke-width="2" cx="80.58" cy="-338" rx="74.63" ry="18"/>
<text text-anchor="middle" x="80.58" y="-335.2" font-family="Helvetica,sans-Serif" font-size="11.00" fill="#ffffff">ecom.raw_products</text>
</a>
</g>
</g>
<!-- dbt_model__stg_products -->
<g id="node28" class="node">
<title>dbt_model__stg_products</title>
<g id="a_node28"><a xlink:title="◆ dbt_model:stg_products&#10;Type : dbt transformation model&#10;Kind : transformation&#10;&#10;Evidence &#160;&#160;: sqlglot&#10;Confidence : 1.00&#10;File &#160;&#160;&#160;&#160;&#160;&#160;: models/staging/stg_products.sql:1&#45;35">
<path fill="#f44336" stroke="#1565c0" stroke-width="2" d="M690.74,-372C690.74,-372 566.74,-372 566.74,-372 560.74,-372 554.74,-366 554.74,-360 554.74,-360 554.74,-348 554.74,-348 554.74,-342 560.74,-336 566.74,-336 566.74,-336 690.74,-336 690.74,-336 696.74,-336 702.74,-342 702.74,-348 702.74,-348 702.74,-360 702.74,-360 702.74,-366 696.74,-372 690.74,-372"/>
<text text-anchor="middle" x="628.74" y="-351.2" font-family="Helvetica,sans-Serif" font-size="11.00" fill="#ffffff">dbt_model:stg_products</text>
</a>
</g>
</g>
<!-- ecom_raw_products&#45;&gt;dbt_model__stg_products -->
<g id="edge5" class="edge">
<title>ecom_raw_products&#45;&gt;dbt_model__stg_products</title>
<g id="a_edge5"><a xlink:title="consumes&#10;file=">
<path fill="none" stroke="#4caf50" d="M147.52,-346C147.52,-346 547.32,-346 547.32,-346"/>
<polygon fill="#4caf50" stroke="#4caf50" points="547.32,-348.45 554.32,-346 547.32,-343.55 547.32,-348.45"/>
</a>
</g>
<text text-anchor="middle" x="266.7" y="-340.8" font-family="Helvetica,sans-Serif" font-size="9.00" fill="#b0bec5">consumes</text>
</g>
<!-- ecom_raw_supplies -->
<g id="node6" class="node">
<title>ecom_raw_supplies</title>
<g id="a_node6"><a xlink:title="◆ ecom.raw_supplies&#10;Type : Raw source table&#10;Kind : dataset&#10;&#10;Evidence &#160;&#160;: yaml_parse&#10;Confidence : 1.00&#10;File &#160;&#160;&#160;&#160;&#160;&#160;: /home/yosef/Desktop/intensive/jaffle&#45;shop/models/staging/__sources.yml">
<ellipse fill="#4caf50" stroke="#1565c0" stroke-width="2" cx="80.58" cy="-18" rx="72.52" ry="18"/>
<text text-anchor="middle" x="80.58" y="-15.2" font-family="Helvetica,sans-Serif" font-size="11.00" fill="#ffffff">ecom.raw_supplies</text>
</a>
</g>
</g>
<!-- dbt_model__stg_supplies -->
<g id="node29" class="node">
<title>dbt_model__stg_supplies</title>
<g id="a_node29"><a xlink:title="◆ dbt_model:stg_supplies&#10;Type : dbt transformation model&#10;Kind : transformation&#10;&#10;Evidence &#160;&#160;: sqlglot&#10;Confidence : 1.00&#10;File &#160;&#160;&#160;&#160;&#160;&#160;: models/staging/stg_supplies.sql:1&#45;32">
<path fill="#f44336" stroke="#1565c0" stroke-width="2" d="M689.24,-48C689.24,-48 568.24,-48 568.24,-48 562.24,-48 556.24,-42 556.24,-36 556.24,-36 556.24,-24 556.24,-24 556.24,-18 562.24,-12 568.24,-12 568.24,-12 689.24,-12 689.24,-12 695.24,-12 701.24,-18 701.24,-24 701.24,-24 701.24,-36 701.24,-36 701.24,-42 695.24,-48 689.24,-48"/>
<text text-anchor="middle" x="628.74" y="-27.2" font-family="Helvetica,sans-Serif" font-size="11.00" fill="#ffffff">dbt_model:stg_supplies</text>
</a>
</g>
</g>
<!-- ecom_raw_supplies&#45;&gt;dbt_model__stg_supplies -->
<g id="edge6" class="edge">
<title>ecom_raw_supplies&#45;&gt;dbt_model__stg_supplies</title>
<g id="a_edge6"><a xlink:title="consumes&#10;file=">
<path fill="none" stroke="#4caf50" d="M149.45,-24C149.45,-24 549.23,-24 549.23,-24"/>
<polygon fill="#4caf50" stroke="#4caf50" points="549.23,-26.45 556.23,-24 549.23,-21.55 549.23,-26.45"/>
</a>
</g>
<text text-anchor="middle" x="266.7" y="-20.8" font-family="Helvetica,sans-Serif" font-size="9.00" fill="#b0bec5">consumes</text>
</g>
<!-- customers -->
<g id="node7" class="node">
<title>customers</title>
<g id="a_node7"><a xlink:title="◆ customers&#10;Type : Mart / output table&#10;Kind : dataset&#10;&#10;Evidence &#160;&#160;: yaml_parse&#10;Confidence : 1.00&#10;File &#160;&#160;&#160;&#160;&#160;&#160;: /home/yosef/Desktop/intensive/jaffle&#45;shop/models/marts/customers.yml">
<ellipse fill="#f44336" stroke="#1565c0" stroke-width="2" cx="628.74" cy="-643" rx="57.5" ry="18"/>
<text text-anchor="middle" x="628.74" y="-640.2" font-family="Helvetica,sans-Serif" font-size="11.00" fill="#ffffff">customers</text>
</a>
</g>
</g>
<!-- orders -->
<g id="node8" class="node">
<title>orders</title>
<g id="a_node8"><a xlink:title="◆ orders&#10;Type : Mart / output table&#10;Kind : dataset&#10;&#10;Evidence &#160;&#160;: yaml_parse&#10;Confidence : 1.00&#10;File &#160;&#160;&#160;&#160;&#160;&#160;: /home/yosef/Desktop/intensive/jaffle&#45;shop/models/marts/orders.yml">
<ellipse fill="#f44336" stroke="#1565c0" stroke-width="2" cx="628.74" cy="-859" rx="57.5" ry="18"/>
<text text-anchor="middle" x="628.74" y="-856.2" font-family="Helvetica,sans-Serif" font-size="11.00" fill="#ffffff">orders</text>
</a>
</g>
</g>
<!-- dbt_model__customers -->
<g id="node20" class="node">
<title>dbt_model__customers</title>
<g id="a_node20"><a xlink:title="◆ dbt_model:customers&#10;Type : dbt transformation model&#10;Kind : transformation&#10;&#10;Evidence &#160;&#160;: sqlglot&#10;Confidence : 1.00&#10;File &#160;&#160;&#160;&#160;&#160;&#160;: models/marts/customers.sql:1&#45;59">
<path fill="#f44336" stroke="#1565c0" stroke-width="2" d="M684.24,-769C684.24,-769 573.24,-769 573.24,-769 567.24,-769 561.24,-763 561.24,-757 561.24,-757 561.24,-745 561.24,-745 561.24,-739 567.24,-733 573.24,-733 573.24,-733 684.24,-733 684.24,-733 690.24,-733 696.24,-739 696.24,-745 696.24,-745 696.24,-757 696.24,-757 696.24,-763 690.24,-769 684.24,-769"/>
<text text-anchor="middle" x="628.74" y="-748.2" font-family="Helvetica,sans-Serif" font-size="11.00" fill="#ffffff">dbt_model:customers</text>
</a>
</g>
</g>
<!-- orders&#45;&gt;dbt_model__customers -->
<g id="edge7" class="edge">
<title>orders&#45;&gt;dbt_model__customers</title>
<g id="a_edge7"><a xlink:title="consumes&#10;file=">
<path fill="none" stroke="#4caf50" d="M629.24,-840.68C629.24,-840.68 629.24,-776.05 629.24,-776.05"/>
<polygon fill="#4caf50" stroke="#4caf50" points="631.69,-776.05 629.24,-769.05 626.79,-776.05 631.69,-776.05"/>
</a>
</g>
</g>
<!-- order_items -->
<g id="node9" class="node">
<title>order_items</title>
<g id="a_node9"><a xlink:title="◆ order_items&#10;Type : Mart / output table&#10;Kind : dataset&#10;&#10;Evidence &#160;&#160;: yaml_parse&#10;Confidence : 1.00&#10;File &#160;&#160;&#160;&#160;&#160;&#160;: /home/yosef/Desktop/intensive/jaffle&#45;shop/models/marts/order_items.yml">
<ellipse fill="#f44336" stroke="#1565c0" stroke-width="2" cx="628.74" cy="-1075" rx="57.5" ry="18"/>
<text text-anchor="middle" x="628.74" y="-1072.2" font-family="Helvetica,sans-Serif" font-size="11.00" fill="#ffffff">order_items</text>
</a>
</g>
</g>
<!-- dbt_model__orders -->
<g id="node23" class="node">
<title>dbt_model__orders</title>
<g id="a_node23"><a xlink:title="◆ dbt_model:orders&#10;Type : dbt transformation model&#10;Kind : transformation&#10;&#10;Evidence &#160;&#160;: sqlglot&#10;Confidence : 1.00&#10;File &#160;&#160;&#160;&#160;&#160;&#160;: models/marts/orders.sql:1&#45;78">
<path fill="#f44336" stroke="#1565c0" stroke-width="2" d="M674.24,-985C674.24,-985 583.24,-985 583.24,-985 577.24,-985 571.24,-979 571.24,-973 571.24,-973 571.24,-961 571.24,-961 571.24,-955 577.24,-949 583.24,-949 583.24,-949 674.24,-949 674.24,-949 680.24,-949 686.24,-955 686.24,-961 686.24,-961 686.24,-973 686.24,-973 686.24,-979 680.24,-985 674.24,-985"/>
<text text-anchor="middle" x="628.74" y="-964.2" font-family="Helvetica,sans-Serif" font-size="11.00" fill="#ffffff">dbt_model:orders</text>
</a>
</g>
</g>
<!-- order_items&#45;&gt;dbt_model__orders -->
<g id="edge8" class="edge">
<title>order_items&#45;&gt;dbt_model__orders</title>
<g id="a_edge8"><a xlink:title="consumes&#10;file=">
<path fill="none" stroke="#4caf50" d="M629.24,-1056.68C629.24,-1056.68 629.24,-992.05 629.24,-992.05"/>
<polygon fill="#4caf50" stroke="#4caf50" points="631.69,-992.05 629.24,-985.05 626.79,-992.05 631.69,-992.05"/>
</a>
</g>
</g>
<!-- stg_customers -->
<g id="node10" class="node">
<title>stg_customers</title>
<g id="a_node10"><a xlink:title="◆ stg_customers&#10;Type : Staging dataset&#10;Kind : dataset&#10;&#10;Evidence &#160;&#160;: yaml_parse&#10;Confidence : 1.00&#10;File &#160;&#160;&#160;&#160;&#160;&#160;: /home/yosef/Desktop/intensive/jaffle&#45;shop/models/staging/stg_customers.yml">
<ellipse fill="#2196f3" stroke="#1565c0" stroke-width="2" cx="266.7" cy="-1298" rx="58.16" ry="18"/>
<text text-anchor="middle" x="266.7" y="-1295.2" font-family="Helvetica,sans-Serif" font-size="11.00" fill="#ffffff">stg_customers</text>
</a>
</g>
</g>
<!-- stg_customers&#45;&gt;dbt_model__customers -->
<g id="edge9" class="edge">
<title>stg_customers&#45;&gt;dbt_model__customers</title>
<g id="a_edge9"><a xlink:title="consumes&#10;file=">
<path fill="none" stroke="#4caf50" d="M321.9,-1292C364.86,-1292 417.24,-1292 417.24,-1292 417.24,-1292 417.24,-759.5 417.24,-759.5 417.24,-759.5 554.24,-759.5 554.24,-759.5"/>
<polygon fill="#4caf50" stroke="#4caf50" points="554.24,-761.95 561.24,-759.5 554.24,-757.05 554.24,-761.95"/>
</a>
</g>
<text text-anchor="middle" x="395.24" y="-1259.8" font-family="Helvetica,sans-Serif" font-size="9.00" fill="#b0bec5">consumes</text>
</g>
<!-- stg_locations -->
<g id="node11" class="node">
<title>stg_locations</title>
<g id="a_node11"><a xlink:title="◆ stg_locations&#10;Type : Staging dataset&#10;Kind : dataset&#10;&#10;Evidence &#160;&#160;: yaml_parse&#10;Confidence : 1.00&#10;File &#160;&#160;&#160;&#160;&#160;&#160;: /home/yosef/Desktop/intensive/jaffle&#45;shop/models/staging/stg_locations.yml">
<ellipse fill="#2196f3" stroke="#1565c0" stroke-width="2" cx="266.7" cy="-1536" rx="57.5" ry="18"/>
<text text-anchor="middle" x="266.7" y="-1533.2" font-family="Helvetica,sans-Serif" font-size="11.00" fill="#ffffff">stg_locations</text>
</a>
</g>
</g>
<!-- dbt_model__locations -->
<g id="node25" class="node">
<title>dbt_model__locations</title>
<g id="a_node25"><a xlink:title="◆ dbt_model:locations&#10;Type : dbt transformation model&#10;Kind : transformation&#10;&#10;Evidence &#160;&#160;: sqlglot&#10;Confidence : 1.00&#10;File &#160;&#160;&#160;&#160;&#160;&#160;: models/marts/locations.sql:1&#45;10">
<path fill="#f44336" stroke="#1565c0" stroke-width="2" d="M680.24,-1513C680.24,-1513 577.24,-1513 577.24,-1513 571.24,-1513 565.24,-1507 565.24,-1501 565.24,-1501 565.24,-1489 565.24,-1489 565.24,-1483 571.24,-1477 577.24,-1477 577.24,-1477 680.24,-1477 680.24,-1477 686.24,-1477 692.24,-1483 692.24,-1489 692.24,-1489 692.24,-1501 692.24,-1501 692.24,-1507 686.24,-1513 680.24,-1513"/>
<text text-anchor="middle" x="628.74" y="-1492.2" font-family="Helvetica,sans-Serif" font-size="11.00" fill="#ffffff">dbt_model:locations</text>
</a>
</g>
</g>
<!-- stg_locations&#45;&gt;dbt_model__locations -->
<g id="edge10" class="edge">
<title>stg_locations&#45;&gt;dbt_model__locations</title>
<g id="a_edge10"><a xlink:title="consumes&#10;file=">
<path fill="none" stroke="#4caf50" d="M267.24,-1517.9C267.24,-1506.91 267.24,-1495 267.24,-1495 267.24,-1495 557.94,-1495 557.94,-1495"/>
<polygon fill="#4caf50" stroke="#4caf50" points="557.94,-1497.45 564.94,-1495 557.94,-1492.55 557.94,-1497.45"/>
</a>
</g>
<text text-anchor="middle" x="395.24" y="-1497.8" font-family="Helvetica,sans-Serif" font-size="9.00" fill="#b0bec5">consumes</text>
</g>
<!-- stg_products -->
<g id="node12" class="node">
<title>stg_products</title>
<g id="a_node12"><a xlink:title="◆ stg_products&#10;Type : Staging dataset&#10;Kind : dataset&#10;&#10;Evidence &#160;&#160;: yaml_parse&#10;Confidence : 1.00&#10;File &#160;&#160;&#160;&#160;&#160;&#160;: /home/yosef/Desktop/intensive/jaffle&#45;shop/models/staging/stg_products.yml">
<ellipse fill="#2196f3" stroke="#1565c0" stroke-width="2" cx="266.7" cy="-585" rx="57.5" ry="18"/>
<text text-anchor="middle" x="266.7" y="-582.2" font-family="Helvetica,sans-Serif" font-size="11.00" fill="#ffffff">stg_products</text>
</a>
</g>
</g>
<!-- dbt_model__products -->
<g id="node21" class="node">
<title>dbt_model__products</title>
<g id="a_node21"><a xlink:title="◆ dbt_model:products&#10;Type : dbt transformation model&#10;Kind : transformation&#10;&#10;Evidence &#160;&#160;: sqlglot&#10;Confidence : 1.00&#10;File &#160;&#160;&#160;&#160;&#160;&#160;: models/marts/products.sql:1&#45;10">
<path fill="#f44336" stroke="#1565c0" stroke-width="2" d="M679.24,-579C679.24,-579 578.24,-579 578.24,-579 572.24,-579 566.24,-573 566.24,-567 566.24,-567 566.24,-555 566.24,-555 566.24,-549 572.24,-543 578.24,-543 578.24,-543 679.24,-543 679.24,-543 685.24,-543 691.24,-549 691.24,-555 691.24,-555 691.24,-567 691.24,-567 691.24,-573 685.24,-579 679.24,-579"/>
<text text-anchor="middle" x="628.74" y="-558.2" font-family="Helvetica,sans-Serif" font-size="11.00" fill="#ffffff">dbt_model:products</text>
</a>
</g>
</g>
<!-- stg_products&#45;&gt;dbt_model__products -->
<g id="edge11" class="edge">
<title>stg_products&#45;&gt;dbt_model__products</title>
<g id="a_edge11"><a xlink:title="consumes&#10;file=">
<path fill="none" stroke="#4caf50" d="M309.65,-573C309.65,-573 559.14,-573 559.14,-573"/>
<polygon fill="#4caf50" stroke="#4caf50" points="559.14,-575.45 566.14,-573 559.14,-570.55 559.14,-575.45"/>
</a>
</g>
<text text-anchor="middle" x="395.24" y="-587.8" font-family="Helvetica,sans-Serif" font-size="9.00" fill="#b0bec5">consumes</text>
</g>
<!-- dbt_model__order_items -->
<g id="node22" class="node">
<title>dbt_model__order_items</title>
<g id="a_node22"><a xlink:title="◆ dbt_model:order_items&#10;Type : dbt transformation model&#10;Kind : transformation&#10;&#10;Evidence &#160;&#160;: sqlglot&#10;Confidence : 1.00&#10;File &#160;&#160;&#160;&#160;&#160;&#160;: models/marts/order_items.sql:1&#45;67">
<path fill="#f44336" stroke="#1565c0" stroke-width="2" d="M688.24,-1201C688.24,-1201 569.24,-1201 569.24,-1201 563.24,-1201 557.24,-1195 557.24,-1189 557.24,-1189 557.24,-1177 557.24,-1177 557.24,-1171 563.24,-1165 569.24,-1165 569.24,-1165 688.24,-1165 688.24,-1165 694.24,-1165 700.24,-1171 700.24,-1177 700.24,-1177 700.24,-1189 700.24,-1189 700.24,-1195 694.24,-1201 688.24,-1201"/>
<text text-anchor="middle" x="628.74" y="-1180.2" font-family="Helvetica,sans-Serif" font-size="11.00" fill="#ffffff">dbt_model:order_items</text>
</a>
</g>
</g>
<!-- stg_products&#45;&gt;dbt_model__order_items -->
<g id="edge12" class="edge">
<title>stg_products&#45;&gt;dbt_model__order_items</title>
<g id="a_edge12"><a xlink:title="consumes&#10;file=">
<path fill="none" stroke="#4caf50" d="M317.47,-593.5C344.91,-593.5 373.24,-593.5 373.24,-593.5 373.24,-593.5 373.24,-1189 373.24,-1189 373.24,-1189 550.23,-1189 550.23,-1189"/>
<polygon fill="#4caf50" stroke="#4caf50" points="550.23,-1191.45 557.23,-1189 550.23,-1186.55 550.23,-1191.45"/>
</a>
</g>
<text text-anchor="middle" x="395.24" y="-669.8" font-family="Helvetica,sans-Serif" font-size="9.00" fill="#b0bec5">consumes</text>
</g>
<!-- stg_order_items -->
<g id="node13" class="node">
<title>stg_order_items</title>
<g id="a_node13"><a xlink:title="◆ stg_order_items&#10;Type : Staging dataset&#10;Kind : dataset&#10;&#10;Evidence &#160;&#160;: yaml_parse&#10;Confidence : 1.00&#10;File &#160;&#160;&#160;&#160;&#160;&#160;: /home/yosef/Desktop/intensive/jaffle&#45;shop/models/staging/stg_order_items.yml">
<ellipse fill="#2196f3" stroke="#1565c0" stroke-width="2" cx="266.7" cy="-1134" rx="62.58" ry="18"/>
<text text-anchor="middle" x="266.7" y="-1131.2" font-family="Helvetica,sans-Serif" font-size="11.00" fill="#ffffff">stg_order_items</text>
</a>
</g>
</g>
<!-- stg_order_items&#45;&gt;dbt_model__order_items -->
<g id="edge13" class="edge">
<title>stg_order_items&#45;&gt;dbt_model__order_items</title>
<g id="a_edge13"><a xlink:title="consumes&#10;file=">
<path fill="none" stroke="#4caf50" d="M325.68,-1140C412.68,-1140 565.24,-1140 565.24,-1140 565.24,-1140 565.24,-1157.51 565.24,-1157.51"/>
<polygon fill="#4caf50" stroke="#4caf50" points="562.79,-1157.51 565.24,-1164.51 567.69,-1157.51 562.79,-1157.51"/>
</a>
</g>
<text text-anchor="middle" x="395.24" y="-1177.8" font-family="Helvetica,sans-Serif" font-size="9.00" fill="#b0bec5">consumes</text>
</g>
<!-- stg_supplies -->
<g id="node14" class="node">
<title>stg_supplies</title>
<g id="a_node14"><a xlink:title="◆ stg_supplies&#10;Type : Staging dataset&#10;Kind : dataset&#10;&#10;Evidence &#160;&#160;: yaml_parse&#10;Confidence : 1.00&#10;File &#160;&#160;&#160;&#160;&#160;&#160;: /home/yosef/Desktop/intensive/jaffle&#45;shop/models/staging/stg_supplies.yml">
<ellipse fill="#2196f3" stroke="#1565c0" stroke-width="2" cx="266.7" cy="-191" rx="57.5" ry="18"/>
<text text-anchor="middle" x="266.7" y="-188.2" font-family="Helvetica,sans-Serif" font-size="11.00" fill="#ffffff">stg_supplies</text>
</a>
</g>
</g>
<!-- stg_supplies&#45;&gt;dbt_model__order_items -->
<g id="edge14" class="edge">
<title>stg_supplies&#45;&gt;dbt_model__order_items</title>
<g id="a_edge14"><a xlink:title="consumes&#10;file=">
<path fill="none" stroke="#4caf50" d="M316.61,-200C380.83,-200 484.24,-200 484.24,-200 484.24,-200 484.24,-1177 484.24,-1177 484.24,-1177 549.91,-1177 549.91,-1177"/>
<polygon fill="#4caf50" stroke="#4caf50" points="549.91,-1179.45 556.91,-1177 549.91,-1174.55 549.91,-1179.45"/>
</a>
</g>
<text text-anchor="middle" x="395.24" y="-275.8" font-family="Helvetica,sans-Serif" font-size="9.00" fill="#b0bec5">consumes</text>
</g>
<!-- dbt_model__supplies -->
<g id="node26" class="node">
<title>dbt_model__supplies</title>
<g id="a_node26"><a xlink:title="◆ dbt_model:supplies&#10;Type : dbt transformation model&#10;Kind : transformation&#10;&#10;Evidence &#160;&#160;: sqlglot&#10;Confidence : 1.00&#10;File &#160;&#160;&#160;&#160;&#160;&#160;: models/marts/supplies.sql:1&#45;10">
<path fill="#f44336" stroke="#1565c0" stroke-width="2" d="M677.74,-209C677.74,-209 579.74,-209 579.74,-209 573.74,-209 567.74,-203 567.74,-197 567.74,-197 567.74,-185 567.74,-185 567.74,-179 573.74,-173 579.74,-173 579.74,-173 677.74,-173 677.74,-173 683.74,-173 689.74,-179 689.74,-185 689.74,-185 689.74,-197 689.74,-197 689.74,-203 683.74,-209 677.74,-209"/>
<text text-anchor="middle" x="628.74" y="-188.2" font-family="Helvetica,sans-Serif" font-size="11.00" fill="#ffffff">dbt_model:supplies</text>
</a>
</g>
</g>
<!-- stg_supplies&#45;&gt;dbt_model__supplies -->
<g id="edge15" class="edge">
<title>stg_supplies&#45;&gt;dbt_model__supplies</title>
<g id="a_edge15"><a xlink:title="consumes&#10;file=">
<path fill="none" stroke="#4caf50" d="M324.46,-191C324.46,-191 560.55,-191 560.55,-191"/>
<polygon fill="#4caf50" stroke="#4caf50" points="560.55,-193.45 567.55,-191 560.55,-188.55 560.55,-193.45"/>
</a>
</g>
<text text-anchor="middle" x="395.24" y="-193.8" font-family="Helvetica,sans-Serif" font-size="9.00" fill="#b0bec5">consumes</text>
</g>
<!-- stg_orders -->
<g id="node15" class="node">
<title>stg_orders</title>
<g id="a_node15"><a xlink:title="◆ stg_orders&#10;Type : Staging dataset&#10;Kind : dataset&#10;&#10;Evidence &#160;&#160;: yaml_parse&#10;Confidence : 1.00&#10;File &#160;&#160;&#160;&#160;&#160;&#160;: /home/yosef/Desktop/intensive/jaffle&#45;shop/models/staging/stg_orders.yml">
<ellipse fill="#2196f3" stroke="#1565c0" stroke-width="2" cx="266.7" cy="-929" rx="57.5" ry="18"/>
<text text-anchor="middle" x="266.7" y="-926.2" font-family="Helvetica,sans-Serif" font-size="11.00" fill="#ffffff">stg_orders</text>
</a>
</g>
</g>
<!-- stg_orders&#45;&gt;dbt_model__order_items -->
<g id="edge16" class="edge">
<title>stg_orders&#45;&gt;dbt_model__order_items</title>
<g id="a_edge16"><a xlink:title="consumes&#10;file=">
<path fill="none" stroke="#4caf50" d="M316.83,-938C402.57,-938 568.24,-938 568.24,-938 568.24,-938 568.24,-1157.98 568.24,-1157.98"/>
<polygon fill="#4caf50" stroke="#4caf50" points="565.79,-1157.98 568.24,-1164.98 570.69,-1157.98 565.79,-1157.98"/>
</a>
</g>
<text text-anchor="middle" x="395.24" y="-1013.8" font-family="Helvetica,sans-Serif" font-size="9.00" fill="#b0bec5">consumes</text>
</g>
<!-- stg_orders&#45;&gt;dbt_model__orders -->
<g id="edge17" class="edge">
<title>stg_orders&#45;&gt;dbt_model__orders</title>
<g id="a_edge17"><a xlink:title="consumes&#10;file=">
<path fill="none" stroke="#4caf50" d="M324.2,-929C422,-929 610.24,-929 610.24,-929 610.24,-929 610.24,-941.89 610.24,-941.89"/>
<polygon fill="#4caf50" stroke="#4caf50" points="607.79,-941.89 610.24,-948.89 612.69,-941.89 607.79,-941.89"/>
</a>
</g>
<text text-anchor="middle" x="395.24" y="-931.8" font-family="Helvetica,sans-Serif" font-size="9.00" fill="#b0bec5">consumes</text>
</g>
<!-- products -->
<g id="node16" class="node">
<title>products</title>
<g id="a_node16"><a xlink:title="◆ products&#10;Type : Mart / output table&#10;Kind : dataset&#10;&#10;Evidence &#160;&#160;: sqlglot&#10;Confidence : 1.00&#10;File &#160;&#160;&#160;&#160;&#160;&#160;: models/marts/products.sql:1&#45;10">
<ellipse fill="#f44336" stroke="#1565c0" stroke-width="2" cx="628.74" cy="-453" rx="57.5" ry="18"/>
<text text-anchor="middle" x="628.74" y="-450.2" font-family="Helvetica,sans-Serif" font-size="11.00" fill="#ffffff">products</text>
</a>
</g>
</g>
<!-- metricflow_time_spine -->
<g id="node17" class="node">
<title>metricflow_time_spine</title>
<g id="a_node17"><a xlink:title="◆ metricflow_time_spine&#10;Type : Mart / output table&#10;Kind : dataset&#10;&#10;Evidence &#160;&#160;: sqlglot&#10;Confidence : 1.00&#10;File &#160;&#160;&#160;&#160;&#160;&#160;: models/marts/metricflow_time_spine.sql:1&#45;20">
<ellipse fill="#f44336" stroke="#1565c0" stroke-width="2" cx="628.74" cy="-1650" rx="83.67" ry="18"/>
<text text-anchor="middle" x="628.74" y="-1647.2" font-family="Helvetica,sans-Serif" font-size="11.00" fill="#ffffff">metricflow_time_spine</text>
</a>
</g>
</g>
<!-- locations -->
<g id="node18" class="node">
<title>locations</title>
<g id="a_node18"><a xlink:title="◆ locations&#10;Type : Mart / output table&#10;Kind : dataset&#10;&#10;Evidence &#160;&#160;: sqlglot&#10;Confidence : 1.00&#10;File &#160;&#160;&#160;&#160;&#160;&#160;: models/marts/locations.sql:1&#45;10">
<ellipse fill="#f44336" stroke="#1565c0" stroke-width="2" cx="628.74" cy="-1387" rx="57.5" ry="18"/>
<text text-anchor="middle" x="628.74" y="-1384.2" font-family="Helvetica,sans-Serif" font-size="11.00" fill="#ffffff">locations</text>
</a>
</g>
</g>
<!-- supplies -->
<g id="node19" class="node">
<title>supplies</title>
<g id="a_node19"><a xlink:title="◆ supplies&#10;Type : Mart / output table&#10;Kind : dataset&#10;&#10;Evidence &#160;&#160;: sqlglot&#10;Confidence : 1.00&#10;File &#160;&#160;&#160;&#160;&#160;&#160;: models/marts/supplies.sql:1&#45;10">
<ellipse fill="#f44336" stroke="#1565c0" stroke-width="2" cx="628.74" cy="-83" rx="57.5" ry="18"/>
<text text-anchor="middle" x="628.74" y="-80.2" font-family="Helvetica,sans-Serif" font-size="11.00" fill="#ffffff">supplies</text>
</a>
</g>
</g>
<!-- dbt_model__customers&#45;&gt;customers -->
<g id="edge18" class="edge">
<title>dbt_model__customers&#45;&gt;customers</title>
<g id="a_edge18"><a xlink:title="produces&#10;file=">
<path fill="none" stroke="#4caf50" d="M629.24,-732.68C629.24,-732.68 629.24,-668.05 629.24,-668.05"/>
<polygon fill="#4caf50" stroke="#4caf50" points="631.69,-668.05 629.24,-661.05 626.79,-668.05 631.69,-668.05"/>
</a>
</g>
</g>
<!-- dbt_model__products&#45;&gt;products -->
<g id="edge19" class="edge">
<title>dbt_model__products&#45;&gt;products</title>
<g id="a_edge19"><a xlink:title="produces&#10;file=">
<path fill="none" stroke="#4caf50" d="M629.24,-542.68C629.24,-542.68 629.24,-478.05 629.24,-478.05"/>
<polygon fill="#4caf50" stroke="#4caf50" points="631.69,-478.05 629.24,-471.05 626.79,-478.05 631.69,-478.05"/>
</a>
</g>
</g>
<!-- dbt_model__order_items&#45;&gt;order_items -->
<g id="edge20" class="edge">
<title>dbt_model__order_items&#45;&gt;order_items</title>
<g id="a_edge20"><a xlink:title="produces&#10;file=">
<path fill="none" stroke="#4caf50" d="M629.24,-1164.68C629.24,-1164.68 629.24,-1100.05 629.24,-1100.05"/>
<polygon fill="#4caf50" stroke="#4caf50" points="631.69,-1100.05 629.24,-1093.05 626.79,-1100.05 631.69,-1100.05"/>
</a>
</g>
</g>
<!-- dbt_model__orders&#45;&gt;orders -->
<g id="edge21" class="edge">
<title>dbt_model__orders&#45;&gt;orders</title>
<g id="a_edge21"><a xlink:title="produces&#10;file=">
<path fill="none" stroke="#4caf50" d="M648.24,-948.68C648.24,-948.68 648.24,-882.98 648.24,-882.98"/>
<polygon fill="#4caf50" stroke="#4caf50" points="650.69,-882.98 648.24,-875.98 645.79,-882.98 650.69,-882.98"/>
</a>
</g>
</g>
<!-- dbt_model__metricflow_time_spine -->
<g id="node24" class="node">
<title>dbt_model__metricflow_time_spine</title>
<g id="a_node24"><a xlink:title="◆ dbt_model:metricflow_time_spine&#10;Type : dbt transformation model&#10;Kind : transformation&#10;&#10;Evidence &#160;&#160;: sqlglot&#10;Confidence : 1.00&#10;File &#160;&#160;&#160;&#160;&#160;&#160;: models/marts/metricflow_time_spine.sql:1&#45;20">
<path fill="#f44336" stroke="#1565c0" stroke-width="2" d="M716.74,-1776C716.74,-1776 540.74,-1776 540.74,-1776 534.74,-1776 528.74,-1770 528.74,-1764 528.74,-1764 528.74,-1752 528.74,-1752 528.74,-1746 534.74,-1740 540.74,-1740 540.74,-1740 716.74,-1740 716.74,-1740 722.74,-1740 728.74,-1746 728.74,-1752 728.74,-1752 728.74,-1764 728.74,-1764 728.74,-1770 722.74,-1776 716.74,-1776"/>
<text text-anchor="middle" x="628.74" y="-1755.2" font-family="Helvetica,sans-Serif" font-size="11.00" fill="#ffffff">dbt_model:metricflow_time_spine</text>
</a>
</g>
</g>
<!-- dbt_model__metricflow_time_spine&#45;&gt;metricflow_time_spine -->
<g id="edge22" class="edge">
<title>dbt_model__metricflow_time_spine&#45;&gt;metricflow_time_spine</title>
<g id="a_edge22"><a xlink:title="produces&#10;file=">
<path fill="none" stroke="#4caf50" d="M629.24,-1739.68C629.24,-1739.68 629.24,-1675.05 629.24,-1675.05"/>
<polygon fill="#4caf50" stroke="#4caf50" points="631.69,-1675.05 629.24,-1668.05 626.79,-1675.05 631.69,-1675.05"/>
</a>
</g>
</g>
<!-- dbt_model__locations&#45;&gt;locations -->
<g id="edge23" class="edge">
<title>dbt_model__locations&#45;&gt;locations</title>
<g id="a_edge23"><a xlink:title="produces&#10;file=">
<path fill="none" stroke="#4caf50" d="M629.24,-1476.68C629.24,-1476.68 629.24,-1412.05 629.24,-1412.05"/>
<polygon fill="#4caf50" stroke="#4caf50" points="631.69,-1412.05 629.24,-1405.05 626.79,-1412.05 631.69,-1412.05"/>
</a>
</g>
</g>
<!-- dbt_model__supplies&#45;&gt;supplies -->
<g id="edge24" class="edge">
<title>dbt_model__supplies&#45;&gt;supplies</title>
<g id="a_edge24"><a xlink:title="produces&#10;file=">
<path fill="none" stroke="#4caf50" d="M629.24,-172.68C629.24,-172.68 629.24,-108.05 629.24,-108.05"/>
<polygon fill="#4caf50" stroke="#4caf50" points="631.69,-108.05 629.24,-101.05 626.79,-108.05 631.69,-108.05"/>
</a>
</g>
</g>
<!-- dbt_model__stg_orders&#45;&gt;stg_orders -->
<g id="edge25" class="edge">
<title>dbt_model__stg_orders&#45;&gt;stg_orders</title>
<g id="a_edge25"><a xlink:title="produces&#10;file=">
<path fill="none" stroke="#4caf50" d="M561.04,-418C532.71,-418 506.24,-418 506.24,-418 506.24,-418 506.24,-920 506.24,-920 506.24,-920 323.62,-920 323.62,-920"/>
<polygon fill="#4caf50" stroke="#4caf50" points="323.62,-917.55 316.62,-920 323.62,-922.45 323.62,-917.55"/>
</a>
</g>
<text text-anchor="middle" x="395.24" y="-841.8" font-family="Helvetica,sans-Serif" font-size="9.00" fill="#b0bec5">produces</text>
</g>
<!-- dbt_model__stg_products&#45;&gt;stg_products -->
<g id="edge26" class="edge">
<title>dbt_model__stg_products&#45;&gt;stg_products</title>
<g id="a_edge26"><a xlink:title="produces&#10;file=">
<path fill="none" stroke="#4caf50" d="M554.71,-364C448.95,-364 267.24,-364 267.24,-364 267.24,-364 267.24,-559.91 267.24,-559.91"/>
<polygon fill="#4caf50" stroke="#4caf50" points="264.79,-559.91 267.24,-566.91 269.69,-559.91 264.79,-559.91"/>
</a>
</g>
<text text-anchor="middle" x="395.24" y="-505.8" font-family="Helvetica,sans-Serif" font-size="9.00" fill="#b0bec5">produces</text>
</g>
<!-- dbt_model__stg_supplies&#45;&gt;stg_supplies -->
<g id="edge27" class="edge">
<title>dbt_model__stg_supplies&#45;&gt;stg_supplies</title>
<g id="a_edge27"><a xlink:title="produces&#10;file=">
<path fill="none" stroke="#4caf50" d="M562.24,-48.03C562.24,-88.3 562.24,-182 562.24,-182 562.24,-182 323.5,-182 323.5,-182"/>
<polygon fill="#4caf50" stroke="#4caf50" points="323.5,-179.55 316.5,-182 323.5,-184.45 323.5,-179.55"/>
</a>
</g>
<text text-anchor="middle" x="395.24" y="-111.8" font-family="Helvetica,sans-Serif" font-size="9.00" fill="#b0bec5">produces</text>
</g>
<!-- dbt_model__stg_order_items&#45;&gt;stg_order_items -->
<g id="edge28" class="edge">
<title>dbt_model__stg_order_items&#45;&gt;stg_order_items</title>
<g id="a_edge28"><a xlink:title="produces&#10;file=">
<path fill="none" stroke="#4caf50" d="M554.24,-620.11C554.24,-712.6 554.24,-1128 554.24,-1128 554.24,-1128 332.93,-1128 332.93,-1128"/>
<polygon fill="#4caf50" stroke="#4caf50" points="332.93,-1125.55 325.93,-1128 332.93,-1130.45 332.93,-1125.55"/>
</a>
</g>
<text text-anchor="middle" x="395.24" y="-1095.8" font-family="Helvetica,sans-Serif" font-size="9.00" fill="#b0bec5">produces</text>
</g>
<!-- dbt_model__stg_customers&#45;&gt;stg_customers -->
<g id="edge29" class="edge">
<title>dbt_model__stg_customers&#45;&gt;stg_customers</title>
<g id="a_edge29"><a xlink:title="produces&#10;file=">
<path fill="none" stroke="#4caf50" d="M556.24,-1323.89C556.24,-1314.1 556.24,-1304 556.24,-1304 556.24,-1304 328.84,-1304 328.84,-1304"/>
<polygon fill="#4caf50" stroke="#4caf50" points="328.84,-1301.55 321.84,-1304 328.84,-1306.45 328.84,-1301.55"/>
</a>
</g>
<text text-anchor="middle" x="395.24" y="-1341.8" font-family="Helvetica,sans-Serif" font-size="9.00" fill="#b0bec5">produces</text>
</g>
<!-- dbt_model__stg_locations&#45;&gt;stg_locations -->
<g id="edge30" class="edge">
<title>dbt_model__stg_locations&#45;&gt;stg_locations</title>
<g id="a_edge30"><a xlink:title="produces&#10;file=">
<path fill="none" stroke="#4caf50" d="M562.24,-1590.96C562.24,-1569.34 562.24,-1536 562.24,-1536 562.24,-1536 331.38,-1536 331.38,-1536"/>
<polygon fill="#4caf50" stroke="#4caf50" points="331.38,-1533.55 324.38,-1536 331.38,-1538.45 331.38,-1533.55"/>
</a>
</g>
<text text-anchor="middle" x="395.24" y="-1579.8" font-family="Helvetica,sans-Serif" font-size="9.00" fill="#b0bec5">produces</text>
</g>
<!-- _home_yosef_Desktop_intensive_jaffle&#45;shop_macros_generate_schema_name_sql__23__unparseable_sql_0 -->
<g id="node33" class="node">
<title>_home_yosef_Desktop_intensive_jaffle&#45;shop_macros_generate_schema_name_sql__23__unparseable_sql_0</title>
<g id="a_node33"><a xlink:title="◆ macros/generate_schema_name.sql:23:unparseable_sql_0&#10;Type : dbt transformation model&#10;Kind : transformation&#10;&#10;Evidence &#160;&#160;: sqlglot&#10;Confidence : 0.00&#10;File &#160;&#160;&#160;&#160;&#160;&#160;: /home/yosef/Desktop/intensive/jaffle&#45;shop/macros/generate_schema_name.sql:23&#45;38">
<path fill="#f44336" stroke="#1565c0" stroke-width="2" d="M784.24,-1817C784.24,-1817 473.24,-1817 473.24,-1817 467.24,-1817 461.24,-1811 461.24,-1805 461.24,-1805 461.24,-1793 461.24,-1793 461.24,-1787 467.24,-1781 473.24,-1781 473.24,-1781 784.24,-1781 784.24,-1781 790.24,-1781 796.24,-1787 796.24,-1793 796.24,-1793 796.24,-1805 796.24,-1805 796.24,-1811 790.24,-1817 784.24,-1817"/>
<text text-anchor="middle" x="628.74" y="-1796.2" font-family="Helvetica,sans-Serif" font-size="11.00" fill="#ffffff">macros/generate_schema_name.sql:23:unparseable_sql_0</text>
</a>
</g>
</g>
<!-- _home_yosef_Desktop_intensive_jaffle&#45;shop_macros_cents_to_dollars_sql__21__unparseable_sql_0 -->
<g id="node34" class="node">
<title>_home_yosef_Desktop_intensive_jaffle&#45;shop_macros_cents_to_dollars_sql__21__unparseable_sql_0</title>
<g id="a_node34"><a xlink:title="◆ macros/cents_to_dollars.sql:21:unparseable_sql_0&#10;Type : dbt transformation model&#10;Kind : transformation&#10;&#10;Evidence &#160;&#160;: sqlglot&#10;Confidence : 0.00&#10;File &#160;&#160;&#160;&#160;&#160;&#160;: /home/yosef/Desktop/intensive/jaffle&#45;shop/macros/cents_to_dollars.sql:21&#45;36">
<path fill="#f44336" stroke="#1565c0" stroke-width="2" d="M761.74,-1858C761.74,-1858 495.74,-1858 495.74,-1858 489.74,-1858 483.74,-1852 483.74,-1846 483.74,-1846 483.74,-1834 483.74,-1834 483.74,-1828 489.74,-1822 495.74,-1822 495.74,-1822 761.74,-1822 761.74,-1822 767.74,-1822 773.74,-1828 773.74,-1834 773.74,-1834 773.74,-1846 773.74,-1846 773.74,-1852 767.74,-1858 761.74,-1858"/>
<text text-anchor="middle" x="628.74" y="-1837.2" font-family="Helvetica,sans-Serif" font-size="11.00" fill="#ffffff">macros/cents_to_dollars.sql:21:unparseable_sql_0</text>
</a>
</g>
</g>
</g>
</svg>
